<?xml version="1.0" standalone="no"?>
<!DOCTYPE svg PUBLIC "-//W3C//DTD SVG 20010904//EN"
 "http://www.w3.org/TR/2001/REC-SVG-20010904/DTD/svg10.dtd">
<svg version="1.0" xmlns="http://www.w3.org/2000/svg"
 width="2606.000000pt" height="440.000000pt" viewBox="0 0 2606.000000 440.000000"
 preserveAspectRatio="xMidYMid meet">

<g transform="translate(0.000000,440.000000) scale(0.100000,-0.100000)"
fill="#ffffff" stroke="none">
<path d="M10590 4367 c-65 -24 -100 -42 -100 -49 0 -5 -7 -8 -16 -8 -19 0 -84
-68 -84 -87 0 -7 -4 -13 -10 -13 -5 0 -10 -6 -10 -14 0 -7 -7 -19 -15 -26 -8
-7 -15 -21 -15 -31 0 -11 -4 -19 -10 -19 -6 0 -10 -44 -10 -112 0 -100 3 -118
27 -170 14 -32 30 -58 35 -58 4 0 8 -5 8 -10 0 -14 86 -100 100 -100 5 0 10
-4 10 -10 0 -5 9 -10 20 -10 11 0 20 -4 20 -10 0 -5 14 -10 30 -10 17 0 30 -4
30 -10 0 -6 42 -10 105 -10 63 0 105 4 105 10 0 6 11 10 25 10 14 0 25 5 25
10 0 6 9 10 20 10 11 0 20 4 20 9 0 5 14 14 30 21 17 7 30 17 30 22 0 5 15 24
33 43 49 52 57 63 57 80 0 8 5 15 10 15 6 0 10 14 10 30 0 17 5 30 10 30 6 0
10 40 10 100 0 60 -4 100 -10 100 -5 0 -10 9 -10 19 0 26 -37 89 -72 124 -15
15 -28 32 -28 37 0 6 -6 10 -13 10 -7 0 -19 9 -27 20 -8 11 -22 20 -32 20 -10
0 -18 5 -18 10 0 6 -8 10 -18 10 -10 0 -23 5 -29 11 -17 17 -202 22 -243 6z"/>
<path d="M570 4280 c0 -5 -18 -10 -40 -10 -22 0 -40 -4 -40 -10 0 -5 -7 -10
-15 -10 -34 0 -135 -86 -135 -115 0 -8 -4 -15 -9 -15 -5 0 -19 -24 -32 -52
l-24 -53 -3 -1478 -2 -1478 687 4 c659 4 766 8 788 28 5 5 26 9 47 9 21 0 38
5 38 10 0 6 14 10 30 10 17 0 30 5 30 10 0 6 14 10 30 10 17 0 30 5 30 10 0 6
11 10 25 10 14 0 25 5 25 10 0 6 9 10 19 10 11 0 21 3 23 8 4 9 85 62 96 62 4
0 14 9 22 20 8 11 21 20 28 20 15 0 152 139 152 155 0 6 9 17 20 25 11 8 20
22 20 31 0 10 4 19 9 21 12 5 81 155 81 178 0 11 5 20 10 20 6 0 10 18 10 40
0 22 5 40 10 40 6 0 10 70 10 190 0 120 -4 190 -10 190 -5 0 -10 15 -10 34 0
19 -4 38 -10 41 -5 3 -10 15 -10 25 0 21 -51 133 -62 138 -5 2 -8 11 -8 21 0
9 -9 23 -20 31 -11 8 -20 21 -20 29 0 18 -141 157 -169 166 -11 3 -21 11 -21
16 0 5 -5 9 -10 9 -12 0 -92 50 -101 63 -4 5 36 51 87 102 52 52 94 98 94 104
0 5 6 16 13 23 19 19 67 108 67 124 0 8 5 14 10 14 6 0 10 14 10 30 0 17 5 30
10 30 6 0 10 18 10 40 0 22 5 40 10 40 6 0 10 68 10 185 0 117 -4 185 -10 185
-5 0 -10 18 -10 40 0 22 -4 40 -10 40 -5 0 -10 11 -10 25 0 14 -4 25 -10 25
-5 0 -10 8 -10 18 0 36 -91 165 -172 243 -44 43 -87 79 -95 79 -7 0 -13 5 -13
10 0 6 -8 10 -18 10 -10 0 -24 9 -32 20 -8 11 -25 20 -37 20 -13 0 -23 5 -23
10 0 6 -6 10 -13 10 -7 0 -33 9 -56 21 -24 11 -59 23 -77 26 -19 3 -37 10 -40
14 -3 5 -23 9 -44 9 -21 0 -42 5 -45 10 -3 6 -42 10 -86 10 -46 0 -79 4 -79
10 0 7 -160 10 -460 10 -300 0 -460 -3 -460 -10z m875 -530 c3 -5 24 -10 46
-10 21 0 39 -4 39 -9 0 -5 13 -11 28 -14 29 -6 142 -106 142 -126 0 -6 5 -11
10 -11 6 0 10 -11 10 -25 0 -14 4 -25 9 -25 13 0 23 -72 23 -165 0 -89 -10
-155 -23 -155 -5 0 -9 -11 -9 -25 0 -14 -4 -25 -10 -25 -5 0 -10 -7 -10 -15 0
-17 -82 -101 -118 -122 -12 -7 -29 -13 -37 -13 -8 0 -15 -4 -15 -10 0 -5 -16
-10 -35 -10 -19 0 -35 -4 -35 -10 0 -6 -100 -10 -279 -10 -245 0 -280 2 -285
16 -11 28 -7 604 4 604 6 0 10 14 10 30 0 17 5 30 10 30 6 0 10 5 10 12 0 16
41 58 57 58 7 0 13 5 13 10 0 6 13 10 29 10 17 0 33 5 36 10 4 6 78 10 190 10
112 0 186 -4 190 -10z m85 -1280 c0 -5 18 -10 40 -10 22 0 40 -4 40 -10 0 -5
11 -10 25 -10 14 0 25 -4 25 -10 0 -5 7 -10 16 -10 20 0 134 -114 134 -134 0
-9 5 -16 10 -16 6 0 10 -7 10 -15 0 -8 5 -15 10 -15 6 0 10 -13 10 -30 0 -16
5 -30 10 -30 6 0 10 -53 10 -140 0 -87 -4 -140 -10 -140 -5 0 -10 -13 -10 -30
0 -16 -4 -30 -10 -30 -5 0 -10 -9 -10 -20 0 -11 -4 -20 -10 -20 -5 0 -10 -7
-10 -16 0 -22 -105 -122 -135 -130 -14 -3 -25 -10 -25 -15 0 -5 -13 -9 -30 -9
-16 0 -30 -4 -30 -9 0 -18 -135 -26 -390 -23 -146 1 -275 4 -288 7 l-22 6 3
352 c4 338 9 417 28 417 5 0 9 5 9 11 0 21 59 69 85 69 14 0 25 5 25 10 0 6
88 10 245 10 157 0 245 -4 245 -10z"/>
<path d="M8025 4268 c-3 -13 -4 -745 -3 -1628 l3 -1605 330 0 330 0 3 488 2
487 80 0 c47 0 80 -4 80 -10 0 -5 9 -10 20 -10 11 0 20 -4 20 -10 0 -5 7 -10
15 -10 8 0 15 -6 15 -13 0 -18 24 -67 33 -67 4 0 7 -11 7 -25 0 -14 5 -25 10
-25 6 0 10 -9 10 -20 0 -11 4 -20 8 -20 5 0 17 -18 27 -40 10 -22 21 -40 25
-40 3 0 12 -16 20 -35 8 -19 17 -35 22 -35 4 0 8 -9 8 -20 0 -11 5 -20 10 -20
6 0 10 -11 10 -25 0 -14 5 -25 10 -25 6 0 10 -9 10 -20 0 -11 5 -20 10 -20 6
0 10 -9 10 -20 0 -11 4 -20 8 -20 4 0 30 -43 57 -95 27 -52 53 -95 57 -95 5 0
8 -11 8 -25 0 -14 5 -25 10 -25 6 0 10 -7 10 -15 0 -8 5 -15 10 -15 6 0 10 -5
10 -10 0 -14 86 -100 100 -100 5 0 10 -4 10 -10 0 -5 9 -10 20 -10 11 0 20 -3
20 -8 0 -4 28 -13 63 -21 74 -16 657 -28 657 -14 0 15 -25 63 -32 63 -5 0 -8
8 -8 18 0 10 -9 24 -20 32 -11 8 -20 22 -20 32 0 10 -4 18 -10 18 -5 0 -10 9
-10 20 0 11 -4 20 -10 20 -5 0 -10 7 -10 15 0 8 -4 15 -8 15 -5 0 -17 18 -27
40 -10 22 -22 40 -27 40 -4 0 -8 7 -8 15 0 8 -4 15 -10 15 -5 0 -10 9 -10 20
0 11 -4 20 -10 20 -5 0 -10 7 -10 15 0 8 -4 15 -10 15 -5 0 -10 7 -10 15 0 8
-4 15 -10 15 -5 0 -10 9 -10 20 0 11 -4 20 -8 20 -5 0 -22 24 -37 53 -16 28
-31 54 -35 57 -4 3 -13 20 -21 37 -8 18 -17 33 -21 33 -5 0 -8 9 -8 20 0 11
-4 20 -10 20 -5 0 -10 9 -10 20 0 11 -4 20 -10 20 -5 0 -10 9 -10 20 0 11 -4
20 -10 20 -5 0 -10 5 -10 10 0 6 -11 28 -25 50 -14 22 -25 46 -25 55 0 8 -4
15 -9 15 -5 0 -15 16 -22 35 -7 19 -17 35 -21 35 -4 0 -8 9 -8 20 0 11 -4 20
-10 20 -5 0 -10 9 -10 20 0 11 -4 20 -10 20 -5 0 -10 9 -10 20 0 11 -4 20 -8
20 -5 0 -17 18 -27 40 -10 22 -22 40 -27 40 -4 0 -8 5 -8 11 0 6 -13 24 -30
39 -16 15 -30 33 -30 38 0 6 15 26 33 44 17 19 41 47 52 62 11 16 30 39 43 52
12 13 22 30 22 39 0 8 5 15 10 15 6 0 10 7 10 15 0 8 5 15 10 15 6 0 10 6 10
13 0 6 10 24 23 39 55 67 67 84 67 96 0 6 5 12 10 12 6 0 10 7 10 15 0 8 5 15
10 15 6 0 10 8 10 18 0 10 9 24 20 32 11 8 20 19 20 25 0 6 8 20 18 31 10 10
27 34 37 52 11 17 22 32 26 32 4 0 12 14 19 30 7 17 16 30 21 30 5 0 9 7 9 15
0 8 5 15 10 15 6 0 10 8 10 18 0 10 9 24 20 32 11 8 20 22 20 32 0 10 3 18 8
18 4 0 21 20 37 45 17 24 33 45 38 45 4 0 7 8 7 18 0 10 9 24 20 32 11 8 20
22 20 32 0 10 4 18 8 18 4 0 16 14 25 30 14 24 15 31 5 35 -7 3 -177 4 -377 3
-349 -3 -364 -4 -375 -23 -6 -10 -17 -25 -23 -33 -7 -7 -13 -17 -13 -21 0 -7
-11 -22 -50 -68 -5 -7 -10 -17 -10 -23 0 -5 -4 -10 -10 -10 -5 0 -10 -8 -10
-18 0 -10 -9 -24 -20 -32 -11 -8 -20 -22 -20 -32 0 -10 -4 -18 -8 -18 -4 0
-21 -24 -36 -52 -16 -29 -37 -60 -47 -69 -11 -9 -19 -24 -19 -33 0 -9 -4 -16
-10 -16 -5 0 -10 -7 -10 -15 0 -8 -4 -15 -10 -15 -5 0 -10 -7 -10 -15 0 -8 -4
-15 -10 -15 -5 0 -10 -7 -10 -15 0 -8 -4 -15 -10 -15 -5 0 -10 -7 -10 -16 0
-9 -8 -24 -18 -33 -18 -16 -72 -96 -72 -106 0 -3 -16 -21 -35 -40 -26 -27 -43
-35 -69 -35 -19 0 -38 -4 -41 -10 -3 -5 -35 -10 -70 -10 -59 0 -65 2 -70 23
-3 12 -6 355 -7 761 -2 581 -6 740 -15 744 -7 2 -13 12 -13 23 0 10 -4 19 -10
19 -5 0 -10 5 -10 11 0 17 -72 79 -91 79 -10 0 -21 5 -24 10 -3 6 -26 10 -51
10 -24 0 -44 5 -44 10 0 6 -73 10 -200 10 -199 0 -200 0 -205 -22z"/>
<path d="M3855 3431 c-6 -5 -44 -12 -85 -14 -111 -7 -223 -33 -325 -77 -11 -4
-35 -14 -52 -22 -18 -7 -33 -16 -33 -20 0 -5 -11 -8 -25 -8 -14 0 -25 -3 -25
-8 0 -4 -15 -13 -32 -21 -18 -8 -46 -25 -63 -38 -50 -39 -96 -77 -110 -90 -8
-7 -16 -13 -20 -13 -10 0 -65 -57 -65 -67 0 -4 -9 -14 -20 -21 -11 -7 -20 -17
-20 -22 0 -6 -16 -27 -35 -47 -19 -21 -41 -50 -48 -65 -6 -16 -15 -28 -19 -28
-5 0 -8 -7 -8 -15 0 -8 -4 -15 -10 -15 -5 0 -10 -9 -10 -20 0 -11 -4 -20 -10
-20 -5 0 -10 -9 -10 -20 0 -11 -4 -20 -10 -20 -5 0 -10 -9 -10 -20 0 -11 -4
-28 -9 -38 -24 -47 -34 -79 -70 -218 -6 -23 -11 -62 -11 -88 0 -26 -5 -46 -11
-46 -21 0 1 -316 30 -435 28 -113 35 -135 43 -135 4 0 8 -9 8 -20 0 -11 5 -30
12 -43 24 -47 28 -57 28 -72 0 -8 5 -15 10 -15 6 0 10 -9 10 -20 0 -11 5 -20
10 -20 6 0 10 -7 10 -15 0 -8 5 -15 10 -15 6 0 10 -6 10 -12 0 -7 11 -26 25
-43 14 -16 37 -45 52 -64 40 -48 141 -151 148 -151 4 0 19 -12 33 -28 30 -30
106 -82 122 -82 5 0 10 -4 10 -10 0 -5 9 -10 20 -10 11 0 20 -4 20 -10 0 -5 9
-10 20 -10 11 0 20 -4 20 -10 0 -5 9 -10 20 -10 11 0 20 -4 20 -10 0 -5 11
-10 25 -10 14 0 25 -4 25 -10 0 -5 14 -10 30 -10 17 0 30 -3 30 -8 0 -7 52
-22 172 -48 93 -20 445 -15 538 8 97 24 179 52 232 79 10 5 27 9 38 9 11 0 20
5 20 10 0 6 9 10 20 10 11 0 20 5 20 10 0 6 7 10 15 10 8 0 15 3 15 8 0 4 14
13 31 21 17 7 41 24 54 37 13 13 28 24 33 24 5 0 23 14 40 30 18 17 34 30 37
30 7 0 75 68 75 75 0 3 9 16 20 28 61 67 80 90 85 108 4 10 11 19 16 19 5 0 9
9 9 20 0 11 5 20 10 20 6 0 10 7 10 15 0 8 5 15 10 15 6 0 10 9 10 20 0 11 5
20 10 20 6 0 10 8 10 18 0 10 11 42 25 70 14 29 25 59 25 67 0 8 5 15 10 15 6
0 10 15 10 34 0 19 5 38 10 41 6 3 10 26 10 51 0 24 5 44 10 44 6 0 10 82 10
225 0 143 -4 225 -10 225 -5 0 -10 23 -10 50 0 28 -4 50 -10 50 -5 0 -10 13
-10 29 0 17 -4 33 -10 36 -5 3 -10 13 -10 22 0 14 -20 66 -41 105 -5 10 -9 25
-9 33 0 8 -4 15 -10 15 -5 0 -10 9 -10 20 0 11 -4 20 -10 20 -5 0 -10 9 -10
20 0 11 -4 20 -10 20 -5 0 -10 7 -10 15 0 8 -4 15 -8 15 -5 0 -14 11 -20 25
-13 29 -23 41 -69 90 -18 19 -33 37 -33 40 0 7 -88 95 -95 95 -3 0 -17 11 -31
25 -14 14 -29 25 -33 25 -7 0 -22 11 -68 50 -7 5 -17 10 -23 10 -5 0 -10 5
-10 10 0 6 -9 10 -20 10 -11 0 -20 5 -20 10 0 6 -9 10 -20 10 -11 0 -20 5 -20
10 0 6 -9 10 -20 10 -11 0 -20 5 -20 10 0 6 -11 10 -24 10 -14 0 -28 5 -31 10
-3 6 -17 10 -31 10 -13 0 -24 4 -24 8 0 4 -35 16 -77 26 -43 10 -88 22 -101
27 -13 5 -59 9 -102 9 -47 0 -80 4 -80 10 0 13 -133 13 -145 1z m204 -582 c20
-6 44 -15 53 -20 10 -5 27 -9 38 -9 11 0 20 -4 20 -10 0 -5 9 -10 20 -10 11 0
20 -4 20 -10 0 -5 7 -10 15 -10 8 0 15 -4 15 -10 0 -5 7 -10 15 -10 8 0 15 -4
15 -8 0 -5 11 -15 25 -22 14 -7 25 -18 25 -23 0 -5 14 -22 30 -37 17 -15 30
-33 30 -39 0 -7 6 -19 13 -27 42 -50 57 -78 57 -104 0 -11 5 -20 10 -20 6 0
10 -16 10 -35 0 -19 5 -35 10 -35 6 0 10 -32 10 -75 0 -43 4 -75 10 -75 6 0
10 -18 10 -40 0 -22 -4 -40 -10 -40 -6 0 -10 -33 -10 -80 0 -47 -4 -80 -10
-80 -5 0 -10 -16 -10 -35 0 -19 -4 -35 -10 -35 -5 0 -10 -10 -11 -22 0 -13 -9
-36 -19 -53 -11 -16 -27 -43 -36 -60 -9 -16 -30 -42 -45 -56 -16 -15 -29 -31
-29 -36 0 -5 -11 -16 -25 -23 -14 -7 -25 -17 -25 -22 0 -4 -7 -8 -15 -8 -8 0
-15 -4 -15 -10 0 -5 -7 -10 -15 -10 -8 0 -15 -4 -15 -10 0 -5 -9 -10 -20 -10
-11 0 -20 -4 -20 -10 0 -5 -10 -10 -23 -10 -13 0 -27 -4 -33 -8 -14 -13 -112
-32 -171 -33 -56 -2 -182 19 -197 33 -6 4 -18 8 -28 8 -10 0 -18 5 -18 10 0 6
-9 10 -20 10 -11 0 -20 5 -20 10 0 6 -7 10 -15 10 -8 0 -24 8 -36 18 -45 37
-99 91 -99 99 0 5 -9 15 -20 23 -11 8 -20 18 -20 22 0 5 -11 26 -25 48 -14 22
-25 46 -25 55 0 8 -4 15 -10 15 -5 0 -10 14 -10 30 0 17 -4 30 -10 30 -5 0
-10 20 -10 45 0 25 -4 45 -10 45 -6 0 -10 52 -10 135 0 83 4 135 10 135 6 0
10 20 10 45 0 25 5 45 10 45 6 0 10 14 10 30 0 17 5 30 10 30 6 0 10 7 10 16
0 20 48 104 72 125 10 9 18 20 18 24 0 12 86 95 99 95 6 0 11 5 11 10 0 6 8
10 18 10 10 0 24 9 32 20 8 12 26 20 42 20 15 0 28 5 28 10 0 6 15 10 33 10
17 0 39 5 47 10 21 13 196 12 239 -1z"/>
<path d="M6487 3433 c-5 -4 -45 -11 -90 -15 -45 -3 -102 -10 -127 -15 -61 -13
-193 -54 -204 -65 -6 -4 -18 -8 -28 -8 -10 0 -18 -4 -18 -10 0 -5 -9 -10 -20
-10 -11 0 -20 -4 -20 -10 0 -5 -9 -10 -20 -10 -11 0 -20 -4 -20 -10 0 -5 -9
-10 -20 -10 -11 0 -20 -4 -20 -10 0 -5 -5 -10 -10 -10 -16 0 -92 -52 -122 -82
-14 -16 -29 -28 -33 -28 -8 0 -85 -79 -140 -144 -22 -26 -46 -53 -52 -61 -7
-7 -13 -18 -13 -24 0 -6 -4 -11 -10 -11 -5 0 -10 -9 -10 -20 0 -11 -4 -20 -10
-20 -5 0 -10 -9 -10 -20 0 -11 -4 -20 -8 -20 -9 0 -44 -75 -84 -185 -29 -75
-38 -111 -38 -143 0 -18 -4 -32 -10 -32 -6 0 -10 -38 -10 -95 0 -57 -4 -95
-10 -95 -5 0 -10 -25 -10 -55 0 -30 5 -55 10 -55 6 0 10 -38 10 -95 0 -57 4
-95 10 -95 6 0 10 -14 10 -32 0 -17 5 -48 11 -67 16 -51 40 -113 50 -133 5
-10 9 -25 9 -33 0 -8 5 -15 10 -15 6 0 10 -9 10 -20 0 -11 5 -20 10 -20 6 0
10 -9 10 -20 0 -11 5 -20 10 -20 6 0 10 -9 10 -20 0 -11 3 -20 8 -20 4 0 14
-15 21 -32 8 -18 24 -43 35 -55 58 -63 66 -73 66 -78 0 -7 108 -115 115 -115
3 0 17 -11 31 -25 14 -14 29 -25 33 -25 7 0 22 -11 68 -50 7 -5 17 -10 23 -10
5 0 10 -4 10 -10 0 -5 9 -10 20 -10 11 0 20 -4 20 -10 0 -5 9 -10 20 -10 11 0
20 -4 20 -10 0 -5 9 -10 20 -10 11 0 20 -4 20 -10 0 -5 9 -10 20 -10 11 0 28
-4 38 -9 29 -15 155 -54 207 -64 57 -12 472 -14 525 -3 47 9 201 56 222 67 10
5 27 9 38 9 11 0 20 5 20 10 0 6 9 10 20 10 11 0 20 5 20 10 0 6 9 10 20 10
11 0 20 5 20 10 0 6 9 10 20 10 11 0 20 5 20 10 0 6 5 10 10 10 6 0 16 5 23
10 46 39 61 50 68 50 5 0 24 16 43 35 20 19 38 35 41 35 7 0 95 88 95 95 0 3
10 16 23 29 12 13 29 33 37 46 8 12 23 33 33 45 9 13 17 28 17 34 0 6 5 11 10
11 6 0 10 9 10 20 0 11 5 20 10 20 6 0 10 9 10 20 0 11 5 20 10 20 6 0 10 9
10 20 0 11 5 20 10 20 6 0 10 7 10 15 0 8 4 23 9 33 23 46 41 95 41 112 0 10
5 22 10 25 6 3 10 26 10 51 0 24 5 44 10 44 6 0 10 35 10 85 0 50 4 85 10 85
6 0 10 32 10 75 0 41 -4 75 -9 75 -5 0 -12 39 -14 88 -6 109 -21 180 -57 267
-7 17 -16 39 -20 50 -27 68 -36 85 -42 85 -5 0 -8 9 -8 20 0 11 -4 20 -10 20
-5 0 -10 9 -10 20 0 11 -4 20 -10 20 -5 0 -10 5 -10 10 0 18 -53 93 -92 132
-21 20 -38 39 -38 42 0 8 -88 96 -95 96 -3 0 -16 9 -28 20 -46 43 -83 71 -109
83 -16 6 -28 15 -28 19 0 5 -9 8 -20 8 -11 0 -20 5 -20 10 0 6 -9 10 -20 10
-11 0 -20 5 -20 10 0 6 -9 10 -20 10 -11 0 -20 5 -20 10 0 6 -11 10 -25 10
-14 0 -25 4 -25 9 0 5 -10 11 -22 14 -13 3 -48 13 -78 21 -94 28 -142 38 -230
47 -157 17 -215 21 -223 12z m216 -588 c20 -4 37 -11 37 -16 0 -5 11 -9 25 -9
14 0 25 -4 25 -10 0 -5 9 -10 20 -10 11 0 20 -4 20 -10 0 -5 7 -10 15 -10 8 0
28 -11 43 -24 15 -14 37 -33 50 -44 12 -11 22 -22 22 -26 0 -4 11 -18 24 -31
14 -13 27 -34 31 -45 3 -11 11 -20 16 -20 5 0 9 -5 9 -12 0 -6 6 -19 13 -27 7
-9 19 -36 26 -61 7 -25 17 -53 22 -62 5 -10 9 -36 9 -58 0 -22 5 -40 10 -40 6
0 10 -45 10 -115 0 -70 -4 -115 -10 -115 -5 0 -10 -20 -10 -44 0 -25 -4 -48
-10 -51 -5 -3 -10 -17 -10 -31 0 -22 -8 -43 -32 -84 -5 -8 -11 -23 -14 -32 -4
-10 -10 -18 -15 -18 -5 0 -9 -7 -9 -16 0 -9 -13 -29 -30 -44 -16 -15 -30 -31
-30 -35 0 -7 -35 -41 -79 -77 -12 -10 -28 -18 -36 -18 -8 0 -15 -4 -15 -10 0
-5 -9 -10 -20 -10 -11 0 -20 -4 -20 -9 0 -5 -10 -11 -22 -14 -13 -3 -52 -13
-88 -22 -83 -21 -167 -21 -250 0 -36 9 -75 19 -87 22 -13 3 -23 9 -23 14 0 5
-9 9 -20 9 -11 0 -20 5 -20 10 0 6 -7 10 -15 10 -8 0 -15 5 -15 10 0 6 -6 10
-12 10 -14 1 -68 45 -68 55 0 3 -16 21 -35 41 -19 19 -35 39 -35 44 0 5 -6 15
-14 22 -21 22 -66 125 -66 153 0 14 -4 25 -10 25 -5 0 -10 25 -10 55 0 30 -4
55 -10 55 -6 0 -10 38 -10 95 0 57 4 95 10 95 6 0 10 24 10 54 0 30 5 58 10
61 6 3 10 15 10 25 0 40 70 172 113 211 9 9 17 20 17 24 0 7 34 40 79 78 12 9
28 17 36 17 8 0 15 5 15 10 0 6 9 10 20 10 11 0 20 5 20 10 0 6 9 10 19 10 11
0 23 5 26 10 3 6 18 10 33 10 15 0 34 5 42 10 16 11 197 7 263 -5z"/>
<path d="M12705 3430 c-3 -5 -24 -10 -46 -10 -65 0 -325 -94 -337 -122 -2 -4
-10 -8 -18 -8 -8 0 -25 -10 -38 -22 -13 -13 -49 -45 -81 -73 -32 -27 -64 -56
-71 -62 -20 -20 -24 -16 -24 27 0 22 -4 40 -10 40 -5 0 -10 9 -10 20 0 11 -4
20 -10 20 -5 0 -10 5 -10 10 0 14 -46 60 -60 60 -5 0 -10 3 -10 8 0 8 -48 32
-66 32 -7 0 -14 5 -16 12 -3 9 -65 13 -226 16 l-222 4 0 -1171 0 -1171 330 0
330 0 0 589 c0 383 4 592 10 596 6 3 10 26 10 50 0 24 4 54 9 67 5 13 15 43
22 68 13 48 59 143 72 148 4 2 7 8 7 13 0 5 30 40 68 78 66 66 129 111 158
111 8 0 14 5 14 10 0 6 14 10 30 10 17 0 30 5 30 10 0 6 30 10 70 10 40 0 70
4 70 10 0 6 9 10 20 10 11 0 20 -4 20 -10 0 -5 25 -10 55 -10 30 0 55 -4 55
-10 0 -5 8 -10 18 -10 20 0 72 -42 72 -59 0 -6 5 -11 10 -11 6 0 10 -9 10 -20
0 -11 4 -20 9 -20 9 0 11 -12 30 -130 5 -30 10 -315 10 -633 1 -385 5 -594 12
-625 14 -59 32 -102 41 -102 5 0 8 -7 8 -15 0 -36 90 -93 182 -114 26 -6 133
-11 238 -11 l191 0 -5 833 c-4 804 -7 931 -27 951 -5 6 -9 27 -9 48 0 21 -4
38 -10 38 -5 0 -10 14 -10 30 0 17 -4 30 -10 30 -5 0 -10 11 -10 25 0 14 -4
25 -10 25 -5 0 -10 9 -10 20 0 11 -4 20 -10 20 -5 0 -10 7 -10 16 0 8 -6 21
-12 29 -7 7 -22 25 -33 41 -30 42 -132 144 -144 144 -6 0 -11 5 -11 10 0 6 -9
10 -19 10 -11 0 -21 3 -23 8 -5 12 -79 48 -138 67 -30 10 -65 21 -78 26 -13 5
-45 9 -72 9 -28 0 -50 5 -50 10 0 6 -48 10 -124 10 -73 0 -127 -4 -131 -10z"/>
<path d="M14770 3431 c0 -5 -21 -11 -47 -14 -63 -6 -126 -23 -176 -47 -22 -11
-47 -20 -54 -20 -7 0 -13 -4 -13 -10 0 -5 -8 -10 -18 -10 -10 0 -28 -9 -40
-20 -12 -11 -28 -20 -37 -20 -8 0 -15 -4 -15 -10 0 -5 -6 -10 -12 -10 -7 0
-26 -12 -43 -26 -16 -14 -49 -42 -72 -62 -24 -19 -43 -39 -43 -44 0 -4 -20
-28 -45 -54 -25 -25 -45 -51 -45 -57 0 -7 -9 -19 -20 -27 -11 -8 -20 -22 -20
-32 0 -10 -4 -18 -10 -18 -5 0 -10 -9 -10 -20 0 -11 -4 -20 -10 -20 -5 0 -10
-9 -10 -20 0 -11 -4 -20 -8 -20 -4 0 -14 -17 -21 -37 -11 -34 -30 -84 -51
-138 -13 -30 -22 -75 -27 -132 -3 -29 -9 -53 -14 -53 -5 0 -9 -103 -9 -240 0
-153 4 -240 10 -240 6 0 10 -22 10 -50 0 -27 5 -50 10 -50 6 0 10 -15 10 -34
0 -19 5 -38 10 -41 6 -3 10 -15 10 -25 0 -17 33 -100 61 -152 5 -10 9 -25 9
-33 0 -8 5 -15 10 -15 6 0 10 -7 10 -15 0 -8 5 -15 10 -15 6 0 10 -9 10 -20 0
-11 5 -20 10 -20 6 0 10 -6 10 -13 0 -12 33 -54 100 -124 16 -18 30 -35 30
-38 0 -10 49 -55 60 -55 5 0 10 -4 10 -10 0 -5 4 -10 10 -10 9 0 35 -19 64
-46 18 -18 187 -104 202 -104 8 0 14 -4 14 -10 0 -5 16 -10 35 -10 19 0 35 -4
35 -9 0 -15 85 -23 299 -27 134 -3 208 -1 215 6 5 5 27 10 48 10 21 0 38 5 38
10 0 6 14 10 30 10 17 0 30 5 30 10 0 6 9 10 20 10 11 0 20 5 20 10 0 6 9 10
20 10 11 0 20 5 20 10 0 6 5 10 12 10 6 0 26 11 44 25 18 14 37 25 43 25 6 0
11 5 11 11 0 5 5 7 10 4 6 -3 10 -42 10 -86 0 -46 -4 -79 -10 -79 -5 0 -10
-11 -10 -25 0 -33 -45 -134 -70 -155 -11 -10 -20 -20 -20 -24 0 -13 -70 -76
-85 -76 -8 0 -15 -4 -15 -10 0 -5 -9 -10 -20 -10 -11 0 -20 -4 -20 -10 0 -5
-11 -10 -25 -10 -14 0 -25 -4 -25 -8 0 -4 -30 -15 -67 -25 -100 -25 -330 -23
-443 4 -47 12 -100 23 -117 26 -18 3 -33 9 -33 14 0 5 -13 9 -30 9 -16 0 -30
5 -30 10 0 6 -37 10 -90 10 -53 0 -90 -4 -90 -10 0 -5 -4 -10 -10 -10 -13 0
-50 -37 -50 -50 0 -5 -4 -10 -10 -10 -5 0 -10 -7 -10 -15 0 -8 -4 -15 -10 -15
-5 0 -10 -13 -10 -30 0 -16 -4 -30 -10 -30 -5 0 -10 -9 -10 -20 0 -11 -4 -20
-10 -20 -5 0 -10 -8 -10 -18 0 -10 -11 -42 -25 -70 -14 -29 -25 -59 -25 -67 0
-8 -4 -15 -10 -15 -5 0 -10 -11 -10 -25 0 -14 -4 -25 -10 -25 -15 0 -12 -29 4
-46 8 -8 22 -14 30 -14 9 0 16 -4 16 -10 0 -5 9 -10 20 -10 11 0 20 -4 20 -10
0 -5 11 -10 25 -10 14 0 25 -4 25 -10 0 -5 9 -10 20 -10 11 0 20 -4 20 -10 0
-5 9 -10 20 -10 11 0 28 -4 38 -9 39 -19 138 -50 190 -58 17 -3 32 -9 32 -14
0 -5 27 -9 60 -9 33 0 60 -4 60 -10 0 -6 43 -10 110 -10 67 0 110 -4 110 -10
0 -5 25 -10 55 -10 30 0 55 5 55 10 0 6 42 10 105 10 63 0 105 4 105 10 0 6
25 10 55 10 30 0 55 5 55 10 0 6 10 10 23 10 12 0 54 12 92 26 39 15 85 32
103 38 17 6 32 14 32 18 0 5 9 8 20 8 11 0 20 5 20 10 0 6 11 10 25 10 14 0
25 5 25 10 0 6 8 10 18 10 10 0 24 9 32 20 8 11 18 20 23 20 5 0 32 19 60 43
28 23 57 47 65 52 36 27 142 153 142 170 0 6 9 17 20 25 11 8 20 22 20 32 0
10 5 18 10 18 6 0 10 9 10 19 0 11 5 23 10 26 6 3 10 15 10 25 0 10 4 20 8 22
9 3 44 109 64 193 9 37 13 348 15 1233 l3 1182 -167 0 c-157 0 -283 -14 -283
-32 0 -4 -8 -8 -18 -8 -10 0 -24 -9 -32 -20 -8 -11 -19 -20 -24 -20 -12 0 -44
-38 -51 -61 -8 -25 -41 -24 -62 1 -10 11 -23 20 -30 20 -7 0 -13 5 -13 10 0 6
-7 10 -15 10 -8 0 -15 3 -15 8 0 8 -49 32 -67 32 -7 0 -13 3 -13 8 0 16 -192
82 -238 82 -17 0 -34 5 -37 10 -8 13 -345 14 -345 1z m450 -604 c22 -6 40 -15
40 -19 0 -5 11 -8 25 -8 14 0 25 -4 25 -10 0 -5 6 -10 13 -10 17 0 87 -64 87
-79 0 -6 4 -11 9 -11 5 0 12 -8 16 -19 3 -10 14 -29 25 -41 11 -13 20 -31 20
-41 0 -10 4 -20 9 -23 12 -8 22 -64 28 -158 2 -43 9 -78 14 -78 5 0 9 -29 9
-65 0 -37 -4 -65 -10 -65 -6 0 -10 -31 -10 -74 0 -41 -4 -78 -10 -81 -5 -3
-10 -22 -10 -41 0 -19 -4 -34 -10 -34 -5 0 -10 -7 -10 -15 0 -24 -37 -91 -65
-119 -14 -14 -25 -32 -25 -41 0 -8 -6 -15 -12 -15 -7 0 -29 -14 -48 -30 -19
-17 -47 -34 -62 -37 -16 -3 -28 -9 -28 -13 0 -20 -245 -39 -263 -21 -6 6 -26
11 -44 11 -18 0 -33 5 -33 10 0 6 -8 10 -18 10 -29 0 -172 104 -172 125 0 6
-51 87 -60 95 -3 3 -12 25 -20 50 -7 25 -17 49 -22 55 -4 5 -8 26 -8 47 0 21
-4 38 -10 38 -6 0 -10 63 -10 170 0 107 4 170 10 170 6 0 10 15 10 34 0 19 5
38 10 41 6 3 10 17 10 31 0 13 5 24 10 24 6 0 10 9 10 20 0 11 3 20 8 20 4 0
16 16 26 35 11 19 23 35 28 35 4 0 8 6 8 13 0 7 10 19 21 27 12 8 32 25 45 38
13 12 32 22 44 22 11 0 20 4 20 9 0 9 24 17 100 31 58 11 229 3 280 -13z"/>
<path d="M20800 3430 c0 -6 -28 -10 -65 -10 -36 0 -86 -5 -112 -11 -93 -22
-158 -41 -175 -50 -10 -5 -27 -9 -38 -9 -11 0 -20 -4 -20 -8 0 -4 -20 -14 -45
-21 -25 -7 -45 -17 -45 -22 0 -5 -9 -9 -20 -9 -11 0 -20 -4 -20 -10 0 -5 -9
-10 -20 -10 -11 0 -20 -4 -20 -10 0 -5 -7 -10 -15 -10 -9 0 -27 -11 -41 -25
-14 -14 -28 -25 -32 -25 -4 0 -26 -18 -50 -40 -23 -22 -48 -40 -55 -40 -7 0
-21 -12 -32 -27 -24 -33 -74 -93 -95 -113 -8 -8 -21 -27 -29 -42 -8 -16 -18
-28 -23 -28 -4 0 -8 -9 -8 -20 0 -11 -4 -20 -10 -20 -5 0 -10 -7 -10 -15 0 -8
-4 -15 -10 -15 -5 0 -10 -9 -10 -20 0 -11 -4 -20 -10 -20 -5 0 -10 -9 -10 -20
0 -11 -4 -20 -10 -20 -5 0 -10 -8 -10 -18 0 -10 -6 -26 -13 -37 -7 -11 -19
-40 -26 -65 -7 -25 -17 -53 -22 -62 -5 -10 -9 -34 -9 -53 0 -19 -4 -35 -10
-35 -6 0 -10 -30 -10 -70 0 -40 -4 -70 -10 -70 -6 0 -10 -52 -10 -135 0 -83 4
-135 10 -135 6 0 10 -30 10 -70 0 -40 4 -70 10 -70 6 0 10 -18 10 -40 0 -22 5
-40 10 -40 6 0 10 -11 10 -24 0 -21 36 -115 60 -158 6 -10 10 -25 10 -33 0 -8
5 -15 10 -15 6 0 10 -9 10 -20 0 -11 5 -20 10 -20 6 0 10 -7 10 -15 0 -8 5
-15 10 -15 6 0 10 -7 10 -15 0 -9 11 -27 25 -41 14 -14 25 -29 25 -34 0 -11
185 -198 224 -225 15 -11 37 -28 48 -37 11 -10 29 -20 39 -23 11 -4 19 -11 19
-16 0 -5 9 -9 20 -9 11 0 20 -4 20 -10 0 -5 11 -10 25 -10 14 0 25 -4 25 -10
0 -5 9 -10 20 -10 11 0 20 -4 20 -10 0 -5 9 -10 19 -10 11 0 23 -5 26 -10 3
-6 16 -10 29 -10 12 0 26 -4 31 -8 10 -9 98 -33 195 -52 80 -17 437 -8 520 12
96 24 179 52 232 79 10 5 27 9 38 9 11 0 20 5 20 10 0 6 7 10 15 10 9 0 25 9
37 20 12 11 28 20 35 20 7 0 13 5 13 10 0 6 6 10 13 10 6 0 27 14 46 30 18 17
38 30 43 30 13 0 198 188 198 201 0 6 8 19 18 28 22 20 72 97 72 111 0 5 5 10
10 10 6 0 10 9 10 20 0 11 5 20 10 20 6 0 10 11 10 25 0 14 5 25 10 25 6 0 10
11 10 25 0 14 4 25 9 25 5 0 11 12 14 28 3 15 10 45 17 67 6 22 20 81 30 130
33 156 23 449 -19 575 -5 14 -14 45 -21 70 -6 25 -16 53 -21 62 -5 10 -9 25
-9 33 0 8 -4 15 -10 15 -5 0 -10 11 -10 25 0 14 -4 25 -10 25 -5 0 -10 9 -10
20 0 11 -4 20 -10 20 -5 0 -10 5 -10 10 0 14 -50 91 -72 111 -10 9 -18 22 -18
28 0 6 -15 26 -32 44 -18 18 -42 45 -53 60 -11 15 -23 27 -28 27 -4 0 -27 19
-52 43 -24 23 -69 58 -99 77 -31 19 -56 38 -56 43 0 4 -9 7 -20 7 -11 0 -20 5
-20 10 0 6 -9 10 -20 10 -11 0 -20 5 -20 10 0 6 -7 10 -15 10 -15 0 -25 4 -72
28 -13 7 -32 12 -43 12 -11 0 -20 3 -20 8 0 7 -22 13 -145 44 -22 5 -78 12
-125 15 -47 3 -89 9 -94 14 -14 12 -146 12 -146 -1z m209 -581 c20 -6 44 -15
53 -20 10 -5 27 -9 38 -9 11 0 20 -4 20 -10 0 -5 8 -10 18 -10 10 0 24 -9 32
-20 8 -11 21 -20 29 -20 18 0 131 -115 131 -135 0 -8 5 -15 10 -15 6 0 10 -5
10 -11 0 -6 8 -23 18 -37 11 -15 22 -36 25 -47 3 -11 15 -47 26 -79 12 -33 21
-83 21 -112 0 -29 5 -56 10 -59 6 -3 10 -26 10 -50 0 -24 -4 -47 -10 -50 -5
-3 -10 -30 -10 -60 0 -30 -4 -64 -9 -77 -5 -13 -14 -41 -21 -63 -19 -61 -44
-115 -52 -115 -5 0 -8 -7 -8 -15 0 -8 -4 -15 -10 -15 -5 0 -10 -7 -10 -15 0
-20 -113 -135 -131 -135 -8 0 -21 -9 -29 -20 -8 -11 -22 -20 -32 -20 -10 0
-18 -4 -18 -10 0 -5 -8 -10 -17 -10 -10 0 -37 -7 -60 -15 -86 -30 -159 -35
-251 -18 -48 8 -91 19 -96 24 -6 5 -18 9 -28 9 -10 0 -18 5 -18 10 0 6 -9 10
-20 10 -11 0 -20 5 -20 10 0 6 -9 10 -20 10 -11 0 -20 5 -20 10 0 6 -5 10 -11
10 -12 0 -93 82 -124 124 -11 16 -26 34 -32 41 -7 8 -13 21 -13 29 0 9 -4 16
-10 16 -5 0 -10 11 -10 25 0 14 -4 25 -10 25 -5 0 -10 14 -10 30 0 17 -4 30
-10 30 -5 0 -10 20 -10 45 0 25 -4 45 -10 45 -6 0 -10 52 -10 135 0 83 4 135
10 135 6 0 10 20 10 45 0 25 5 45 10 45 6 0 10 14 10 30 0 17 5 30 10 30 6 0
10 9 10 20 0 20 15 53 35 76 6 6 17 22 25 34 31 46 55 75 73 90 10 8 29 25 42
38 13 12 31 22 40 22 8 0 15 5 15 10 0 6 7 10 15 10 8 0 15 5 15 10 0 6 14 10
30 10 17 0 30 5 30 10 0 6 15 10 33 10 17 0 39 5 47 10 21 13 196 12 239 -1z"/>
<path d="M18365 3411 c-16 -5 -55 -14 -85 -21 -87 -20 -160 -44 -212 -71 -10
-5 -27 -9 -38 -9 -11 0 -20 -4 -20 -10 0 -5 -9 -10 -20 -10 -11 0 -20 -4 -20
-10 0 -5 -9 -10 -20 -10 -11 0 -20 -4 -20 -10 0 -5 -5 -10 -10 -10 -10 0 -20
-7 -53 -36 -7 -6 -23 -16 -35 -23 -36 -19 -57 -38 -169 -148 -57 -56 -103
-109 -103 -118 0 -8 -4 -15 -10 -15 -5 0 -10 -7 -10 -15 0 -8 -3 -15 -7 -15
-5 0 -19 -23 -32 -50 -14 -28 -29 -50 -33 -50 -4 0 -8 -8 -8 -18 0 -10 -7 -27
-15 -38 -8 -10 -15 -27 -15 -36 0 -10 -4 -18 -10 -18 -5 0 -10 -13 -10 -30 0
-16 -4 -30 -10 -30 -5 0 -10 -13 -10 -30 0 -16 -4 -30 -10 -30 -5 0 -10 -20
-10 -45 0 -25 -4 -45 -10 -45 -6 0 -10 -38 -10 -95 0 -57 -4 -95 -10 -95 -6 0
-10 -28 -10 -65 0 -37 4 -65 10 -65 6 0 10 -35 10 -85 0 -50 4 -85 10 -85 6 0
10 -25 10 -55 0 -30 5 -55 10 -55 6 0 10 -13 10 -30 0 -16 5 -30 10 -30 6 0
10 -13 10 -30 0 -16 5 -30 10 -30 6 0 10 -5 10 -12 0 -15 73 -162 83 -166 4
-2 7 -11 7 -21 0 -9 9 -23 20 -31 11 -8 20 -21 20 -28 0 -14 186 -202 234
-237 15 -11 37 -28 48 -37 11 -10 29 -20 39 -23 11 -4 19 -11 19 -16 0 -5 9
-9 20 -9 11 0 20 -4 20 -10 0 -5 9 -10 20 -10 11 0 20 -4 20 -9 0 -5 20 -15
45 -22 25 -7 45 -17 45 -21 0 -4 7 -8 15 -8 8 0 23 -4 33 -9 9 -6 44 -17 77
-26 33 -9 70 -21 83 -26 13 -5 43 -9 67 -9 24 0 47 -4 50 -10 4 -6 82 -10 200
-10 118 0 196 4 200 10 3 6 20 10 37 10 18 0 45 4 62 9 117 35 153 46 171 55
11 5 28 13 37 18 10 4 27 8 38 8 11 0 20 5 20 10 0 6 9 10 20 10 11 0 20 5 20
10 0 6 9 10 20 10 11 0 20 3 20 8 0 4 15 14 33 22 17 7 37 18 42 22 6 5 21 17
34 28 13 11 28 20 32 20 4 0 19 11 33 25 14 14 28 25 31 25 3 0 21 15 40 33
18 17 47 43 64 57 17 14 33 31 35 38 6 14 -24 82 -36 82 -4 0 -8 9 -8 20 0 11
-4 20 -10 20 -5 0 -10 7 -10 15 0 8 -4 15 -10 15 -5 0 -10 7 -10 15 0 9 -5 21
-10 28 -20 24 -57 83 -71 115 -7 17 -17 32 -20 32 -4 0 -12 14 -19 30 -7 17
-16 30 -21 30 -5 0 -9 7 -9 16 0 8 -7 22 -16 31 -16 17 -28 10 -95 -59 -15
-16 -32 -28 -38 -28 -7 0 -23 -11 -36 -24 -32 -32 -110 -86 -124 -86 -6 0 -11
-4 -11 -10 0 -5 -9 -10 -20 -10 -11 0 -20 -4 -20 -10 0 -5 -11 -10 -25 -10
-14 0 -25 -4 -25 -10 0 -5 -9 -10 -20 -10 -11 0 -28 -4 -38 -10 -77 -42 -293
-54 -414 -22 -37 10 -71 21 -74 25 -4 4 -16 7 -26 7 -10 0 -18 5 -18 10 0 6
-9 10 -20 10 -11 0 -20 5 -20 10 0 6 -8 10 -17 10 -23 0 -60 29 -137 107 -77
78 -86 89 -86 108 0 8 -4 15 -10 15 -5 0 -10 9 -10 20 0 11 -4 20 -10 20 -5 0
-10 11 -10 25 0 14 -4 25 -10 25 -5 0 -10 18 -10 40 0 22 -4 40 -10 40 -6 0
-10 60 -10 159 0 96 4 162 10 166 6 3 10 24 10 46 0 21 5 39 10 39 6 0 10 9
10 20 0 11 5 20 10 20 6 0 10 11 10 25 0 14 5 25 10 25 6 0 10 7 10 16 0 8 6
21 13 29 6 7 22 26 34 42 44 57 111 123 127 123 9 0 16 5 16 10 0 6 7 10 15
10 8 0 15 5 15 10 0 6 9 10 20 10 11 0 20 5 20 10 0 6 9 10 20 10 11 0 20 5
20 10 0 6 13 10 28 10 15 0 33 5 40 12 18 18 265 17 325 -2 52 -16 117 -68
117 -94 0 -9 5 -16 10 -16 6 0 10 -7 10 -15 0 -33 67 -115 95 -115 8 0 15 -4
15 -10 0 -5 13 -10 29 -10 17 0 33 -4 36 -10 4 -6 80 -10 195 -10 162 0 189 2
194 16 9 23 7 279 -3 356 -6 40 -21 90 -40 128 -32 63 -114 153 -170 186 -17
10 -31 22 -31 26 0 4 -9 8 -20 8 -11 0 -20 5 -20 10 0 6 -9 10 -20 10 -11 0
-20 5 -20 10 0 6 -11 10 -24 10 -14 0 -28 5 -31 10 -3 6 -17 10 -31 10 -13 0
-24 4 -24 9 0 5 -15 11 -32 14 -44 7 -126 26 -164 38 -36 11 -426 11 -469 0z"/>
<path d="M23410 3392 c-41 -15 -76 -30 -78 -34 -2 -4 -12 -8 -23 -8 -10 0 -19
-4 -19 -10 0 -5 -9 -10 -20 -10 -11 0 -20 -4 -20 -10 0 -5 -7 -10 -15 -10 -8
0 -15 -4 -15 -10 0 -5 -7 -10 -15 -10 -9 0 -27 -10 -39 -22 -13 -13 -37 -33
-52 -45 -16 -12 -53 -45 -82 -72 -29 -28 -55 -51 -57 -51 -3 0 -5 9 -5 20 0
11 -4 20 -10 20 -5 0 -10 16 -10 35 0 19 -4 35 -9 35 -5 0 -12 9 -16 19 -8 25
-59 81 -74 81 -6 0 -11 5 -11 10 0 6 -9 10 -20 10 -11 0 -20 4 -20 9 0 17 -66
24 -257 28 l-193 4 0 -1166 0 -1165 310 0 310 0 0 550 c0 360 3 550 10 550 6
0 10 32 10 75 0 43 4 75 10 75 6 0 10 18 10 39 0 22 5 43 10 46 6 3 10 17 10
30 0 25 49 137 63 143 4 2 7 11 7 21 0 9 9 23 20 31 11 8 20 21 20 30 0 9 9
22 20 30 11 8 20 18 20 23 0 8 31 40 79 80 12 9 28 17 36 17 8 0 15 5 15 10 0
6 9 10 20 10 11 0 20 4 20 9 0 9 42 17 138 27 34 4 52 2 52 -5 0 -6 16 -11 35
-11 19 0 35 -4 35 -10 0 -5 7 -10 15 -10 29 0 115 -101 115 -135 0 -8 5 -15
10 -15 6 0 10 -18 10 -40 0 -22 5 -40 10 -40 7 0 10 -262 10 -765 l0 -765 318
2 317 3 3 575 c1 363 6 578 12 584 6 6 10 32 10 58 0 26 5 48 10 48 6 0 10 20
10 45 0 25 5 45 10 45 6 0 10 14 10 30 0 17 5 30 10 30 6 0 10 7 10 16 0 28
71 147 111 185 22 21 39 40 39 44 0 10 28 35 39 35 6 0 11 5 11 10 0 6 7 10
15 10 8 0 15 5 15 10 0 6 7 10 15 10 8 0 15 5 15 10 0 6 14 10 30 10 17 0 30
4 30 9 0 5 21 12 48 15 26 2 63 8 83 11 23 4 39 3 43 -4 4 -6 25 -11 47 -11
21 0 39 -4 39 -10 0 -5 7 -10 15 -10 23 0 58 -38 84 -92 49 -102 51 -138 51
-815 0 -410 4 -634 10 -638 6 -3 10 -14 10 -24 0 -21 22 -71 33 -71 4 0 7 -8
7 -18 0 -10 12 -25 28 -33 15 -8 29 -17 32 -20 3 -4 28 -15 55 -25 41 -15 87
-19 253 -22 l202 -3 -4 863 c-3 826 -7 951 -27 973 -5 5 -9 24 -9 42 0 18 -4
33 -10 33 -5 0 -10 14 -10 30 0 17 -4 30 -10 30 -5 0 -10 11 -10 25 0 14 -4
25 -10 25 -5 0 -10 9 -10 20 0 11 -4 20 -9 20 -5 0 -13 10 -16 21 -9 29 -168
189 -188 189 -8 0 -17 4 -19 8 -5 12 -113 61 -177 80 -65 19 -412 30 -446 13
-11 -5 -31 -12 -45 -14 -57 -12 -221 -83 -228 -99 -2 -4 -12 -8 -23 -8 -10 0
-19 -4 -19 -10 0 -5 -4 -10 -10 -10 -5 0 -20 -8 -32 -17 -22 -19 -184 -181
-206 -207 -16 -20 -32 -20 -32 -1 0 8 -4 15 -10 15 -5 0 -10 9 -10 20 0 11 -4
20 -10 20 -5 0 -10 7 -10 15 0 9 -10 27 -22 39 -13 13 -33 37 -45 52 -47 60
-71 84 -87 84 -9 0 -16 4 -16 9 0 14 -140 78 -241 110 -21 6 -103 11 -205 10
-155 -1 -175 -3 -244 -27z"/>
<path d="M10403 3374 c-10 -4 -13 -247 -13 -1164 0 -1047 2 -1158 16 -1164 9
-3 156 -6 328 -6 229 0 315 3 324 12 16 16 18 2048 2 2048 -5 0 -10 15 -10 34
0 34 -46 136 -61 136 -4 0 -11 9 -14 20 -3 11 -13 20 -21 20 -8 0 -14 4 -14 9
0 4 -24 19 -52 31 -48 21 -71 23 -263 26 -115 2 -216 1 -222 -2z"/>
<path d="M16790 1790 c0 -5 -18 -10 -40 -10 -22 0 -40 -4 -40 -10 0 -5 -8 -10
-19 -10 -10 0 -43 -17 -72 -37 -65 -45 -79 -58 -79 -75 0 -8 -9 -20 -20 -28
-11 -8 -20 -22 -20 -32 0 -10 -3 -18 -8 -18 -16 0 -32 -85 -32 -175 0 -77 4
-104 22 -143 12 -26 26 -48 30 -50 4 -2 8 -10 8 -19 0 -20 83 -97 128 -119
147 -70 241 -71 371 -5 69 36 131 93 152 139 7 17 17 32 21 32 5 0 8 14 8 30
0 17 5 30 10 30 6 0 10 45 10 115 0 70 -4 115 -10 115 -5 0 -10 11 -10 25 0
14 -4 25 -10 25 -5 0 -10 7 -10 15 0 18 -9 30 -66 88 -58 58 -84 77 -116 84
-16 3 -28 9 -28 14 0 5 -20 9 -45 9 -25 0 -45 5 -45 10 0 6 -20 10 -45 10 -25
0 -45 -4 -45 -10z"/>
</g>
</svg>
